<svg viewBox="0 0 400 400"><path d="M400 200A200 200 0 1 1 200 0a199.94 199.94 0 0 1 200 200zM208.82 70.05a21.09 21.09 0 0 0-23.68.29L79.08 144.21a21.07 21.07 0 0 0-9 17.3v79.6a21.05 21.05 0 0 0 9.46 17.58L187.31 330a21.06 21.06 0 0 0 23.24 0l109.94-72.64a21.08 21.08 0 0 0 9.51-17.63v-78.21a21.06 21.06 0 0 0-9.5-17.52zm82.12 86.22l-40.64 27.29-38.1-27.72-.25-54.5zm-106.56-54.88v53.34l-39 27.31-39-26.12zm-88.67 80.82l25.2 16.89-25.2 17.64zm89.34 113.72l-78.65-52.74 39.29-27.46 39.36 26.4zm-14.94-97.27l25.47-17.81 29.66 19.5L199 218zm42.72 97.27v-53.81l37.61-25.21 40.5 26.62zm89.34-78.28l-26.7-17.55 26.7-17.91z"/></svg>