<svg viewBox="0 0 276.18 204.99"><title>carousel-panel_01</title><path d="M263.13 22.07H188a13 13 0 0 0-13 13v123.1a13 13 0 0 0 13 13h75.12a13 13 0 0 0 13.05-13V35.12a13 13 0 0 0-13.04-13.05zm6.08 138.05h-87.28V32.89h87.28z"/><rect x="218.5" y="163.34" width="14.15" height="4.7" rx="2.35" ry="2.35"/><path d="M0 196.74v4.58A3.66 3.66 0 0 0 3.67 205H203a3.66 3.66 0 0 0 3.66-3.67V199v-.32-1.91z"/><circle cx="103.33" cy="98.38" r="1.15"/><path d="M143.5 0H23.26c-4.94 0-8.94 3.74-8.94 8.36v54.57a8.67 8.67 0 0 0 8.94 8.37H143.5c4.94 0 8.95-3.75 8.95-8.37V8.36c0-4.62-4.01-8.36-8.95-8.36zm-3.2 68.21H26.79V3.09H140.3z"/><rect x="145.02" y="30.01" width="3.07" height="12.31" rx="1.54" ry="1.54"/><circle cx="146.56" cy="24.94" r="1.54"/><circle cx="146.56" cy="47.1" r="1.54"/><path d="M181.15 165.69v21.18H25.51v-83.13h152V93.37H18.83A3.66 3.66 0 0 0 15.17 97v100.49a3.66 3.66 0 0 0 3.66 3.67h169a3.67 3.67 0 0 0 3.67-3.67v-31.8zM143.56 0H23.33c-4.95 0-8.95 3.75-8.95 8.37v54.57c0 4.62 4 8.36 8.95 8.36h120.23c4.94 0 8.95-3.74 8.95-8.36V8.37c0-4.62-4.01-8.37-8.95-8.37zm-3.19 68.21H26.86V3.09h113.51z"/><rect data-name="rect1500" x="145.08" y="30.01" width="3.07" height="12.31" rx="1.54" ry="1.54"/><circle cx="146.62" cy="24.94" r="1.54"/><circle cx="146.62" cy="47.1" r="1.54"/></svg>