<svg viewBox="0 0 580.809 358.041"><path d="M275.463 286.453v37.78c0 14.968-11.47 27.148-26.132 28.294v5.514h170.404v-5.514c-14.664-1.146-26.133-13.326-26.133-28.294v-37.78h-59.07z"/><path d="M419.735 352.527H249.331v5.514h170.404zM106.74 0C96.532 0 88.258 8.276 88.258 18.484v89.891h21.562V21.566h449.424v256.051H130.492v21.565h431.832c10.208 0 18.485-8.275 18.485-18.483V18.484C580.809 8.276 572.532 0 562.324 0z"/><path d="M15.785 97.33C7.066 97.33 0 104.89 0 114.215v226.941c0 9.326 7.066 16.885 15.785 16.885h102.996c8.719 0 15.787-7.56 15.787-16.885V114.215c0-9.325-7.068-16.885-15.787-16.885zM5.83 120.252h122.908V334.49H5.83z"/><path d="M15.785 97.33C7.066 97.33 0 104.89 0 114.215v226.941c0 9.326 7.066 16.885 15.785 16.885h102.996c8.719 0 15.787-7.56 15.787-16.885V114.215c0-9.325-7.068-16.885-15.787-16.885zM5.83 120.252h122.908V334.49H5.83z"/><path d="M74.965 345.992a7.303 7.303 0 1 1-14.602 0 7.303 7.303 0 0 1 14.602 0z"/></svg>