<svg viewBox="0 0 206.65 111.62"><title>device-03</title><path d="M263.13-71.3H188a13 13 0 0 0-13 13V64.84a13 13 0 0 0 13 13h75.12a13 13 0 0 0 13.05-13V-58.25a13 13 0 0 0-13.04-13.05zm6.08 138.05h-87.28V-60.48h87.28zM0 103.36v4.59a3.66 3.66 0 0 0 3.66 3.67H203a3.66 3.66 0 0 0 3.66-3.67v-2.35-.32-1.92z"/><circle cx="103.33" cy="5.01" r="1.15"/><path d="M181.15 72.32v21.17H25.51V10.37h152V0H18.83a3.66 3.66 0 0 0-3.66 3.67v100.45a3.67 3.67 0 0 0 3.66 3.67h169a3.68 3.68 0 0 0 3.67-3.67v-31.8z"/></svg>