<svg class="icon icon--social" viewBox="0 0 400 400" width="72" role="img" aria-labelledby="icon-github__title"><title id="icon-github__title">GitHub</title><path d="M200 0a200 200 0 0 0-63.25 389.75c10 1.75 13.75-4.25 13.75-9.5 0-4.75-.25-20.5-.25-37.25C100 352.25 87 330.75 83 319.5c-2.25-5.75-12-23.5-20.5-28.25-7-3.75-17-13-.25-13.25 15.75-.25 27 14.5 30.75 20.5 18 30.25 46.75 21.75 58.25 16.5 1.75-13 7-21.75 12.75-26.75-44.5-5-91-22.25-91-98.75 0-21.75 7.75-39.75 20.5-53.75-2-5-9-25.5 2-53 0 0 16.75-5.25 55 20.5a188.56 188.56 0 0 1 100 0c38.25-26 55-20.5 55-20.5 11 27.5 4 48 2 53 12.75 14 20.5 31.75 20.5 53.75 0 76.75-46.75 93.75-91.25 98.75 7.25 6.25 13.5 18.25 13.5 37 0 26.75-.25 48.25-.25 55 0 5.25 3.75 11.5 13.75 9.5A200.11 200.11 0 0 0 200 0z"/></svg>