<svg class="icon icon--back-to-top" viewBox="0 0 101.41 132.299" width="72" role="img" aria-labelledby="icon-back-to-top__title"><title id="icon-back-to-top__title">Back to Top</title><g><path d="M7.465 0A7.466 7.466 0 0 0 0 7.465v7.5a7.466 7.466 0 0 0 7.465 7.463h86.48a7.466 7.466 0 0 0 7.465-7.463v-7.5A7.466 7.466 0 0 0 93.945 0zM50.83 29.93a8.467 8.467 0 0 0-6.27 2.65L2.884 76.695c-5.1 5.4-1.27 14.281 6.157 14.281h25.585v32.856a8.468 8.468 0 0 0 8.466 8.467h15.24a8.468 8.468 0 0 0 8.467-8.467V90.976h25.585a8.468 8.468 0 0 0 6.157-14.281L56.868 32.58a8.468 8.468 0 0 0-6.037-2.65z"/></g></svg>