<?xml version="1.0" encoding="utf-8"?>
<!-- Generator: Adobe Illustrator 22.0.0, SVG Export Plug-In . SVG Version: 6.00 Build 0)  -->
<svg version="1.1" id="svg8" xmlns="http://www.w3.org/2000/svg" xmlns:xlink="http://www.w3.org/1999/xlink" x="0px" y="0px"
	 viewBox="0 0 249.2 181.2" style="enable-background:new 0 0 249.2 181.2;" xml:space="preserve">
<path id="rect1411" d="M94.7,145v19.1c0,7.5-5.7,13.7-13.2,14.3v2.8h86.2v-2.8c-7.5-0.6-13.2-6.8-13.2-14.3V145H94.7z"/>
<rect x="81.5" y="178.4" width="86.2" height="2.8"/>
<path d="M239.9,0H9.4C4.2,0,0,4.2,0,9.4V142c0,5.2,4.2,9.4,9.4,9.4h230.5c5.2,0,9.4-4.2,9.4-9.4V9.4C249.2,4.2,245,0,239.9,0z
	 M238.3,140.5H10.9V10.9h227.4V140.5z"/>
</svg>
