<?xml version="1.0" encoding="utf-8"?>
<!-- Generator: Adobe Illustrator 22.0.0, SVG Export Plug-In . SVG Version: 6.00 Build 0)  -->
<svg version="1.1" id="svg8" xmlns="http://www.w3.org/2000/svg" xmlns:xlink="http://www.w3.org/1999/xlink" x="0px" y="0px"
	 viewBox="0 0 101.2 149.2" style="enable-background:new 0 0 101.2 149.2;" xml:space="preserve">
<title>device-04</title>
<path d="M88.2,0H13C5.8,0,0,5.8,0,13v123.1c0,7.2,5.8,13,12.9,13c0,0,0,0,0.1,0h75.2c7.2,0,13-5.8,13-13c0,0,0,0,0-0.1V13
	C101.2,5.8,95.3,0,88.2,0z M94.2,138.1H7V10.8h87.2V138.1z"/>
<path d="M45.9,141.3h9.5c1.3,0,2.3,1.1,2.3,2.4v0c0,1.3-1.1,2.4-2.3,2.4h-9.5c-1.3,0-2.3-1.1-2.3-2.4v0
	C43.5,142.3,44.6,141.3,45.9,141.3z"/>
</svg>
