<svg id="svg8" xmlns="http://www.w3.org/2000/svg" viewBox="0 0 137.28 71.3"><title>device-02</title><path d="M128.27,0H8.88C3.94,0-.06,3.74-.06,8.36V62.93A8.67,8.67,0,0,0,8.88,71.3H128.27c4.94,0,8.95-3.75,8.95-8.37V8.36C137.22,3.74,133.21,0,128.27,0Zm-3.2,68.21H12.41V3.09H125.07Z"/><rect id="rect1500" x="129.79" y="30" width="3.07" height="12.31" rx="1.54" ry="1.54"/><circle cx="131.33" cy="24.94" r="1.54"/><circle cx="131.33" cy="47.1" r="1.54"/><path d="M128.34,0H9C4,0,0,3.74,0,8.36V62.93c0,4.62,4,8.37,9,8.37H128.34a8.67,8.67,0,0,0,8.94-8.37V8.36C137.28,3.74,133.28,0,128.34,0Zm-3.2,68.21H12.48V3.09H125.14Z"/><rect id="rect1500-2" data-name="rect1500" x="129.86" y="30.01" width="3.07" height="12.31" rx="1.54" ry="1.54"/><circle cx="131.39" cy="24.94" r="1.54"/><circle cx="131.39" cy="47.1" r="1.54"/></svg>