<svg id="svg8" xmlns="http://www.w3.org/2000/svg" viewBox="0 0 206.65 111.62"><title>device-03</title><path d="M263.13-71.3H188a13,13,0,0,0-13,13V64.84a13,13,0,0,0,13,13h75.12a13,13,0,0,0,13.05-13V-58.25A13,13,0,0,0,263.13-71.3Zm6.08,138.05H181.93V-60.48h87.28Z"/><path id="rect1506" d="M0,103.36v1.92H0c0,.87,0,1.78,0,2.67a3.66,3.66,0,0,0,3.66,3.67H203a3.66,3.66,0,0,0,3.66-3.67V105.6c0-.11,0-.22,0-.32,0-.6,0-1.29,0-1.92Z"/><circle id="path1549" cx="103.33" cy="5.01" r="1.15"/><path d="M181.15,72.32V93.49H25.51V10.37h152V0H18.83a3.66,3.66,0,0,0-3.66,3.67V104.12a3.67,3.67,0,0,0,3.66,3.67h169a3.68,3.68,0,0,0,3.67-3.67V72.32Z"/></svg>