<?xml version="1.0" encoding="utf-8"?>
<!-- Generator: Adobe Illustrator 22.0.0, SVG Export Plug-In . SVG Version: 6.00 Build 0)  -->
<svg version="1.1" id="svg8" xmlns="http://www.w3.org/2000/svg" xmlns:xlink="http://www.w3.org/1999/xlink" x="0px" y="0px"
	 viewBox="0 0 206.6 111.6" style="enable-background:new 0 0 206.6 111.6;" xml:space="preserve">
<path d="M182.6,0H24.1c-4.9,0-8.9,4-8.9,8.9v98.6h176.3V8.9C191.5,4,187.5,0,182.6,0z M181.2,93.5H25.5V10.4h155.6V93.5z"/>
<path id="rect1506" d="M0,103.4v1.9l0,0c0,0.9,0,1.8,0,2.7c0,2,1.6,3.7,3.6,3.7c0,0,0,0,0,0H203c2,0,3.7-1.6,3.7-3.7c0,0,0,0,0,0
	v-2.3c0-0.1,0-0.2,0-0.3c0-0.6,0-1.3,0-1.9H0z"/>
<circle id="path1549" cx="103.3" cy="5" r="1.2"/>
</svg>
