<?xml version="1.0" encoding="utf-8"?>
<!-- Generator: Adobe Illustrator 22.0.0, SVG Export Plug-In . SVG Version: 6.00 Build 0)  -->
<svg version="1.1" id="svg8" xmlns="http://www.w3.org/2000/svg" xmlns:xlink="http://www.w3.org/1999/xlink" x="0px" y="0px"
	 viewBox="0 0 73.6 152.8" style="enable-background:new 0 0 73.6 152.8;" xml:space="preserve">
<path d="M0,141.5V11.3C0,5.1,5.1,0,11.3,0c0,0,0,0,0,0h51c6.2,0,11.3,5.1,11.3,11.3v130.2c0,6.2-5.1,11.3-11.3,11.3h-51
	C5,152.8,0,147.7,0,141.5z M62.6,3.2H11c-4.4,0-8,3.6-8,8c0,0,0,0,0,0v130.3c0,4.4,3.6,8,8,8h51.6c4.4,0,8-3.6,8-8V11.2
	C70.5,6.8,67,3.2,62.6,3.2z"/>
</svg>
