<svg xmlns="http://www.w3.org/2000/svg" viewBox="0 0 400 400" width="32px"><path d="M400,200A200,200,0,1,1,200,0,199.94,199.94,0,0,1,400,200ZM208.82,70.05a21.09,21.09,0,0,0-23.68.29L79.08,144.21a21.07,21.07,0,0,0-9,17.3v79.6a21.05,21.05,0,0,0,9.46,17.58L187.31,330a21.06,21.06,0,0,0,23.24,0l109.94-72.64A21.08,21.08,0,0,0,330,239.73V161.52A21.06,21.06,0,0,0,320.5,144Zm82.12,86.22L250.3,183.56l-38.1-27.72-.25-54.5ZM184.38,101.39v53.34l-39,27.31-39-26.12ZM95.71,182.21l25.2,16.89-25.2,17.64Zm89.34,113.72L106.4,243.19l39.29-27.46,39.36,26.4Zm-14.94-97.27,25.47-17.81,29.66,19.5L199,218Zm42.72,97.27V242.12l37.61-25.21,40.5,26.62Zm89.34-78.28-26.7-17.55,26.7-17.91Z"></path></svg>