<svg id="svg8" xmlns="http://www.w3.org/2000/svg" viewBox="0 0 276.18 204.99"><title>panel-1</title><path d="M263.13,22.07H188a13,13,0,0,0-13,13v123.1a13,13,0,0,0,13,13h75.12a13,13,0,0,0,13.05-13V35.12A13,13,0,0,0,263.13,22.07Zm6.08,138.05H181.93V32.89h87.28Z"/><rect x="218.5" y="163.34" width="14.15" height="4.7" rx="2.35" ry="2.35"/><path d="M143.5,0H24.11c-4.94,0-8.94,3.74-8.94,8.36V62.93a8.67,8.67,0,0,0,8.94,8.37H143.5c4.94,0,8.95-3.75,8.95-8.37V8.36C152.45,3.74,148.44,0,143.5,0Zm-3.2,68.21H27.64V3.09H140.3Z"/><rect id="rect1500" x="145.02" y="30.01" width="3.07" height="12.31" rx="1.54" ry="1.54"/><circle cx="146.56" cy="24.94" r="1.54"/><circle cx="146.56" cy="47.1" r="1.54"/><path id="rect1506" d="M0,196.74v1.91H0c0,.87,0,1.78,0,2.67A3.66,3.66,0,0,0,3.67,205H203a3.66,3.66,0,0,0,3.66-3.67V199c0-.11,0-.21,0-.32,0-.6,0-1.29,0-1.91Z"/><circle id="path1549" cx="103.33" cy="98.38" r="1.15"/><path d="M181.15,165.69v21.18H25.51V103.74h152V93.37H18.83A3.66,3.66,0,0,0,15.17,97V197.49a3.66,3.66,0,0,0,3.66,3.67h169a3.67,3.67,0,0,0,3.67-3.67v-31.8Z"/><path d="M143.56,0H24.17a8.67,8.67,0,0,0-8.94,8.37V62.94c0,4.62,4,8.36,8.94,8.36H143.56c4.94,0,8.95-3.74,8.95-8.36V8.37C152.51,3.75,148.5,0,143.56,0Zm-3.19,68.21H27.71V3.09H140.37Z"/><rect id="rect1500-2" data-name="rect1500" x="145.08" y="30.01" width="3.07" height="12.31" rx="1.54" ry="1.54"/><circle cx="146.62" cy="24.94" r="1.54"/><circle cx="146.62" cy="47.1" r="1.54"/></svg>