<svg id="svg8" xmlns="http://www.w3.org/2000/svg" viewBox="0 0 152.77 204.99"><title>panel_02</title><path d="M139.73,109.67H13a13,13,0,0,1-13-13V13A13,13,0,0,1,13,0H139.73a13,13,0,0,1,13,13V96.63A13,13,0,0,1,139.73,109.67Zm2.28-8.1V8.1H10.76v93.47Z"/><circle cx="147.41" cy="61.41" r="1.44"/><circle cx="147.41" cy="51.57" r="1.02"/><path d="M141.49,205H11.28A11.28,11.28,0,0,1,0,193.71v-51a11.28,11.28,0,0,1,11.28-11.28H141.49a11.28,11.28,0,0,1,11.28,11.28v51A11.28,11.28,0,0,1,141.49,205ZM3.25,142.41V194a8,8,0,0,0,8,8H141.58a8,8,0,0,0,8-8V142.41a8,8,0,0,0-8-8H11.23A8,8,0,0,0,3.25,142.41Z"/></svg>